<?xml version="1.0" encoding="utf-8" ?>
<svg xmlns="http://www.w3.org/2000/svg" xmlns:xlink="http://www.w3.org/1999/xlink" width="30" height="30">
	<path fill="#3B0000" transform="scale(0.0585938 0.0585938)" d="M0 0L512 0L512 88.7781L512 423.401L512 512L0 512L0 423.404L0 88.6071L0 0ZM0 423.404L0 512L512 512L512 423.401C510.924 426.696 510.819 430.522 510.116 433.95Q509.483 436.96 508.642 439.919Q507.802 442.879 506.758 445.772Q505.715 448.666 504.473 451.481Q503.232 454.295 501.798 457.017Q501.28 458.005 500.737 458.98Q500.195 459.956 499.629 460.917Q499.063 461.879 498.473 462.827Q497.884 463.774 497.271 464.707Q496.659 465.64 496.024 466.557Q495.388 467.474 494.731 468.376Q494.073 469.278 493.394 470.163Q492.714 471.048 492.013 471.916Q491.312 472.785 490.59 473.636Q489.868 474.486 489.126 475.319Q488.383 476.152 487.62 476.967Q486.857 477.781 486.075 478.577Q485.292 479.372 484.49 480.148Q483.689 480.924 482.868 481.68Q482.047 482.436 481.208 483.172Q480.369 483.908 479.513 484.623Q478.656 485.338 477.782 486.032Q476.908 486.726 476.017 487.398Q475.126 488.07 474.22 488.72Q473.313 489.37 472.39 489.998Q471.467 490.626 470.53 491.231Q469.592 491.836 468.64 492.417Q467.687 492.999 466.721 493.557Q465.755 494.116 464.775 494.65Q463.795 495.184 462.803 495.694Q461.811 496.205 460.806 496.69Q459.801 497.176 458.785 497.637Q457.769 498.098 456.741 498.534Q455.714 498.969 454.677 499.38Q453.639 499.791 452.591 500.176Q451.544 500.56 450.488 500.92Q449.431 501.279 448.366 501.612C436.357 505.335 424.754 505.705 412.294 505.709L392.619 505.704L345.405 505.703L214.438 505.702L128.416 505.708L101.745 505.709C95.0867 505.708 88.4095 505.85 81.772 505.233Q79.5788 505.024 77.3986 504.707Q75.2183 504.39 73.0562 503.967Q70.894 503.544 68.7552 503.016Q66.6164 502.487 64.5061 501.854Q62.3957 501.222 60.3189 500.486Q58.2421 499.751 56.2038 498.915Q54.1655 498.079 52.1706 497.144Q50.1758 496.209 48.2291 495.177Q47.2462 494.658 46.2762 494.116Q45.3063 493.573 44.3499 493.007Q43.3935 492.441 42.4513 491.852Q41.509 491.262 40.5815 490.65Q39.654 490.038 38.7417 489.403Q37.8295 488.768 36.9331 488.111Q36.0366 487.455 35.1565 486.776Q34.2764 486.097 33.4132 485.397Q32.55 484.697 31.7042 483.976Q30.8583 483.255 30.0304 482.514Q29.2025 481.773 28.393 481.011Q27.5834 480.25 26.7928 479.469Q26.0022 478.688 25.2309 477.887Q24.4596 477.087 23.7081 476.268Q22.9567 475.45 22.2255 474.613Q21.4943 473.776 20.7838 472.921Q20.0733 472.066 19.3839 471.195Q18.6946 470.323 18.0268 469.435Q17.359 468.546 16.7131 467.642Q16.0672 466.737 15.4437 465.817Q14.8202 464.897 14.2193 463.963Q13.6185 463.028 13.0408 462.078Q12.463 461.129 11.9087 460.166Q11.3543 459.202 10.8237 458.226Q10.2932 457.249 9.78662 456.26Q9.28009 455.271 8.79793 454.269Q8.31577 453.268 7.85826 452.255Q7.40076 451.242 6.96819 450.219Q6.53561 449.195 6.12823 448.161Q5.72084 447.127 5.33889 446.083Q4.95694 445.04 4.60066 443.987Q4.24437 442.934 3.91396 441.873Q2.38743 436.798 1.48402 431.575C1.05326 428.982 0.874494 426.12 0.0731126 423.62C0.0498816 423.548 0.0243709 423.476 0 423.404ZM0 0L0 88.6071C0.0251292 88.5409 0.0515357 88.4751 0.0753877 88.4084C0.966859 85.915 1.08841 82.879 1.53444 80.2596Q2.4648 75.0184 4.0329 69.9314Q4.37374 68.8371 4.74219 67.7517Q5.11065 66.6664 5.50648 65.5907Q5.90232 64.515 6.32528 63.4497Q6.74824 62.3844 7.19805 61.3302Q7.64786 60.276 8.12424 59.2335Q8.60062 58.191 9.10325 57.1609Q9.60589 56.1308 10.1345 55.1137Q10.663 54.0967 11.2172 53.0934Q11.7714 52.0901 12.3508 51.1011Q12.9302 50.1122 13.5345 49.1382Q14.1388 48.1642 14.7675 47.2059Q15.3963 46.2476 16.0491 45.3055Q16.702 44.3634 17.3785 43.4381Q18.055 42.5129 18.7547 41.6051Q19.4544 40.6972 20.1769 39.8074Q20.8994 38.9176 21.6442 38.0464Q22.389 37.1752 23.1556 36.3232Q23.9223 35.4711 24.7103 34.6387Q25.4983 33.8064 26.3071 32.9942Q27.1159 32.1821 27.945 31.3907Q28.7742 30.5993 29.6231 29.8292Q30.472 29.0591 31.3401 28.3107Q32.2083 27.5624 33.0951 26.8362Q33.982 26.1101 34.8869 25.4067Q35.7919 24.7033 36.7143 24.023Q37.6368 23.3427 38.5762 22.686Q39.5157 22.0293 40.4714 21.3966Q41.4272 20.764 42.3986 20.1557Q43.3701 19.5474 44.3567 18.964Q45.3433 18.3805 46.3443 17.8223Q47.3453 17.264 48.3602 16.7313Q49.3751 16.1985 50.4031 15.6917Q54.2236 13.8072 58.204 12.289Q62.1843 10.7708 66.2894 9.63223Q70.3945 8.49369 74.5882 7.74484Q78.7819 6.99599 83.0273 6.64342C89.9106 6.05191 96.9049 6.2889 103.81 6.29244L135.801 6.29757L238.66 6.29931L363.139 6.29964L403.232 6.29382C411.111 6.29112 419.096 6.01972 426.963 6.49024Q430.084 6.68574 433.184 7.09208Q436.284 7.49842 439.349 8.11373Q442.415 8.72904 445.432 9.5505Q448.449 10.372 451.403 11.3958Q452.447 11.7618 453.482 12.153Q454.517 12.5443 455.542 12.9606Q456.567 13.3769 457.582 13.818Q458.597 14.2592 459.601 14.7248Q460.604 15.1905 461.596 15.6804Q462.589 16.1703 463.568 16.6843Q464.548 17.1982 465.515 17.7358Q466.483 18.2733 467.436 18.8343Q468.39 19.3952 469.33 19.9792Q470.27 20.5632 471.195 21.1698Q472.12 21.7765 473.031 22.4054Q473.941 23.0344 474.836 23.6853Q475.73 24.3363 476.609 25.0087Q477.488 25.6812 478.35 26.3749Q479.212 27.0685 480.057 27.7829Q480.902 28.4974 481.729 29.2321Q482.556 29.9668 483.366 30.7215Q484.175 31.4761 484.965 32.2502Q485.756 33.0243 486.527 33.8174Q487.299 34.6105 488.051 35.4221Q488.803 36.2338 489.535 37.0634Q490.267 37.8931 490.979 38.7403Q491.691 39.5875 492.382 40.4518Q493.072 41.3161 493.742 42.1969Q494.412 43.0778 495.06 43.9746Q495.708 44.8714 496.334 45.7838Q496.96 46.6961 497.563 47.6234Q498.167 48.5507 498.748 49.4924Q499.329 50.4341 499.887 51.3896Q500.445 52.3452 500.979 53.314Q501.514 54.2829 502.024 55.2644Q502.535 56.2459 503.022 57.2396Q505.456 62.1905 507.237 67.4124Q509.018 72.6343 510.115 78.0412C510.8 81.5466 510.958 85.3885 512 88.7781L512 0L0 0Z"/>
	<path fill="#FE9A00" transform="scale(0.0585938 0.0585938)" d="M359.407 117.344C366.458 116.71 373.565 117.749 379.324 122.122C384.711 126.212 387.979 132.666 388.863 139.297C389.886 146.97 388.271 154.811 383.518 161.01C379.293 166.522 373.301 169.601 366.488 170.526C359.16 171.389 351.585 169.799 345.678 165.259C340.276 161.107 337.077 154.62 336.253 147.929C335.342 140.525 336.682 133.112 341.358 127.158C345.764 121.549 352.379 118.169 359.407 117.344Z"/>
	<path fill="#FE9A00" transform="scale(0.0585938 0.0585938)" d="M340.921 188.606C349.837 188.301 358.84 188.534 367.766 188.531C372.543 188.53 379.029 188.014 383.556 188.789C384.198 188.899 385.358 189.067 385.709 189.694C386.218 190.605 386.217 192.258 386.23 193.302C386.352 203.201 386.187 213.126 386.188 223.028L386.191 289.111L386.186 335.168C386.182 341.717 386.433 348.359 386.245 354.896C386.218 355.85 386.088 356.903 385.722 357.791C385.338 358.721 384.83 358.899 383.963 359.238L355.842 359.288C351.471 359.289 344.542 359.845 340.538 358.898C339.713 358.704 339.172 358.649 338.775 357.851C338.346 356.989 338.314 355.676 338.289 354.721C338.062 346.214 338.333 337.604 338.332 329.087L338.33 274.507L338.329 218.748C338.333 210.036 338.079 201.254 338.311 192.552C338.341 191.422 338.462 190.381 338.883 189.323C339.453 188.754 340.162 188.732 340.921 188.606Z"/>
	<path fill="#FE9A00" transform="scale(0.0585938 0.0585938)" d="M179.167 134.346C183.155 134.082 187.222 134.215 191.22 134.213L211.928 134.21L226.804 134.206C230.226 134.208 233.877 133.952 237.242 134.625C238.627 137.335 239.504 140.415 240.52 143.284L245.66 157.786L262.97 206.639L297.534 304.194C303.271 320.378 309.405 336.532 314.778 352.837C315.344 354.555 315.885 356.497 315.768 358.316C315.439 358.585 315.503 358.601 315.167 358.692C311.539 359.674 291.536 359.078 286.448 359.065C280.932 359.05 275.273 359.362 269.776 359.095C268.888 359.052 267.799 358.996 267.012 358.533C266.19 358.05 265.634 356.521 265.27 355.646C262.639 349.317 260.67 342.505 258.434 336.016C254.989 326.022 251.343 316.052 248.162 305.973L242.812 305.965L168.726 305.982C165.65 316.272 162.11 326.46 158.821 336.687C156.9 342.658 154.94 350.247 152.553 355.838C152.063 356.988 151.488 358.309 150.225 358.748C148.351 359.398 114.182 359.3 109.959 359.023C108.608 358.934 107.249 358.747 106.016 358.169C105.506 357.031 106.094 355.235 106.436 354.067C107.961 348.873 109.965 343.738 111.747 338.624L121.536 310.495L157.538 206.821L169.022 173.776C171.416 166.905 173.99 160.046 176.053 153.069C177.237 149.065 177.578 145.014 177.861 140.871C177.978 139.17 177.971 137.301 178.3 135.635C178.438 134.935 178.602 134.767 179.167 134.346Z"/>
	<path fill="#3B0000" transform="scale(0.0585938 0.0585938)" d="M207.822 174.14C208.136 174.386 208.271 174.56 208.399 174.942C211.952 185.57 214.981 196.461 218.272 207.18L235.227 262.544L208.875 262.546L181.155 262.571L198.517 205.12C201.637 194.809 204.958 184.524 207.822 174.14Z"/>
</svg>
