<?xml version="1.0" encoding="utf-8" ?>
<svg xmlns="http://www.w3.org/2000/svg" xmlns:xlink="http://www.w3.org/1999/xlink" width="30" height="30">
	<path fill="#001935" transform="scale(0.0585938 0.0585938)" d="M0 0L512 0L512 88.6134L512 423.679L512 512L0 512L0 423.4L0 88.5814L0 0ZM0 0L0 88.5814C0.024342 88.5163 0.0499497 88.4516 0.0730259 88.3861C0.849886 86.1793 0.964892 83.4437 1.36689 81.1144Q2.32446 75.3486 4.06068 69.7676Q4.40178 68.6883 4.76963 67.6179Q5.13749 66.5474 5.53187 65.4864Q5.92625 64.4255 6.34692 63.3746Q6.76758 62.3238 7.21427 61.2838Q7.66096 60.2437 8.13339 59.2151Q8.60583 58.1865 9.10372 57.17Q9.6016 56.1535 10.1246 55.1497Q10.6477 54.1459 11.1955 53.1554Q11.7434 52.1649 12.3157 51.1884Q12.888 50.2118 13.4845 49.2498Q14.081 48.2878 14.7012 47.341Q15.3214 46.3941 15.965 45.463Q16.6086 44.5319 17.2751 43.6171Q17.9417 42.7022 18.6308 41.8043Q19.32 40.9063 20.0312 40.0258Q20.7425 39.1453 21.4754 38.2828Q22.2084 37.4202 22.9626 36.5762Q23.7168 35.7322 24.4918 34.9072Q25.2667 34.0822 26.062 33.2767Q26.8573 32.4713 27.6723 31.6858Q28.4874 30.9004 29.3217 30.1355Q30.1561 29.3706 31.0092 28.6268Q31.8624 27.8829 32.7337 27.1604Q33.6051 26.438 34.4942 25.7375Q35.3833 25.037 36.2895 24.3588Q37.1958 23.6807 38.1187 23.0253Q39.0415 22.3699 39.9804 21.7376Q40.9193 21.1054 41.8736 20.4967Q42.8279 19.8881 43.7971 19.3033Q44.7662 18.7186 45.7497 18.1582Q46.7331 17.5978 47.7301 17.062Q48.7272 16.5262 49.7373 16.0154Q53.6099 14.0744 57.6488 12.5085Q61.6877 10.9426 65.8567 9.76586Q70.0256 8.58912 74.2872 7.81209Q78.5487 7.03506 82.8647 6.66471C89.8594 6.09141 96.9523 6.30928 103.966 6.31033L135.626 6.32081L236.372 6.32422L361.758 6.32381L402.225 6.31698C410.5 6.31284 418.849 6.08001 427.113 6.54483Q433.15 6.9001 439.084 8.06902Q445.018 9.23794 450.739 11.199Q451.795 11.5594 452.842 11.9456Q453.889 12.3319 454.926 12.7437Q455.963 13.1555 456.989 13.5928Q458.016 14.03 459.031 14.4923Q460.047 14.9546 461.051 15.4417Q462.054 15.9288 463.046 16.4405Q464.038 16.9521 465.016 17.488Q465.995 18.0238 466.96 18.5836Q467.925 19.1434 468.877 19.7267Q469.828 20.31 470.764 20.9165Q471.701 21.523 472.622 22.1523Q473.544 22.7817 474.449 23.4335Q475.355 24.0853 476.244 24.7592Q477.134 25.433 478.006 26.1285Q478.879 26.824 479.734 27.5408Q480.589 28.2575 481.426 28.9951Q482.263 29.7326 483.082 30.4905Q483.901 31.2484 484.701 32.0262Q485.501 32.804 486.282 33.6013Q487.062 34.3985 487.823 35.2147Q488.584 36.0309 489.325 36.8655Q490.065 37.7001 490.785 38.5527Q491.505 39.4053 492.203 40.2753Q492.902 41.1453 493.579 42.0322Q494.256 42.9191 494.911 43.8224Q495.566 44.7257 496.199 45.6448Q496.832 46.5639 497.441 47.4983Q498.051 48.4327 498.638 49.3818Q499.225 50.3308 499.788 51.2941Q500.351 52.2573 500.891 53.2341Q501.43 54.2108 501.945 55.2006Q502.46 56.1903 502.951 57.1924Q505.431 62.2561 507.241 67.5958Q509.051 72.9355 510.162 78.4632C510.833 81.8188 511.143 85.3069 512 88.6134L512 0L0 0ZM0 423.4L0 512L512 512L512 423.679C510.99 426.984 510.759 430.681 510.062 434.088Q508.933 439.451 507.149 444.633Q505.365 449.815 502.954 454.736Q502.462 455.741 501.946 456.733Q501.43 457.726 500.89 458.706Q500.349 459.685 499.785 460.651Q499.221 461.617 498.633 462.569Q498.045 463.521 497.434 464.458Q496.823 465.395 496.189 466.317Q495.555 467.238 494.899 468.144Q494.243 469.05 493.564 469.94Q492.886 470.829 492.186 471.702Q491.486 472.574 490.764 473.429Q490.043 474.285 489.301 475.122Q488.559 475.959 487.796 476.777Q487.034 477.596 486.252 478.396Q485.469 479.195 484.668 479.976Q483.866 480.756 483.045 481.516Q482.224 482.276 481.385 483.016Q480.546 483.756 479.689 484.475Q478.832 485.194 477.958 485.891Q477.083 486.589 476.192 487.265Q475.3 487.941 474.393 488.595Q473.485 489.249 472.561 489.88Q471.638 490.512 470.699 491.12Q469.76 491.729 468.807 492.314Q467.854 492.899 466.886 493.461Q465.919 494.023 464.938 494.56Q463.957 495.098 462.963 495.611Q461.969 496.125 460.963 496.614Q459.956 497.103 458.938 497.566Q457.92 498.03 456.891 498.469Q455.862 498.908 454.823 499.321Q453.783 499.735 452.734 500.122Q451.685 500.51 450.626 500.872Q447.71 501.864 444.732 502.654Q441.755 503.443 438.73 504.027Q435.705 504.61 432.648 504.985Q429.59 505.36 426.514 505.524C418.512 505.964 410.395 505.701 402.379 505.699L361.039 505.688L233.138 505.688L134.81 505.689L104.242 505.698C96.4993 505.698 88.7549 505.868 81.035 505.163C70.0998 504.163 59.3454 500.714 49.5418 495.846Q48.5277 495.333 47.5269 494.794Q46.526 494.255 45.539 493.691Q44.552 493.128 43.5795 492.539Q42.6069 491.951 41.6495 491.338Q40.692 490.726 39.7502 490.089Q38.8084 489.453 37.8829 488.793Q36.9574 488.133 36.0488 487.45Q35.1401 486.768 34.2489 486.062Q33.3577 485.357 32.4845 484.629Q31.6113 483.901 30.7566 483.152Q29.9019 482.403 29.0663 481.632Q28.2307 480.862 27.4147 480.07Q26.5987 479.279 25.8029 478.468Q25.007 477.656 24.2318 476.825Q23.4565 475.994 22.7024 475.143Q21.9483 474.293 21.2157 473.424Q20.4832 472.554 19.7727 471.667Q19.0622 470.78 18.3743 469.875Q17.6863 468.97 17.0212 468.049Q16.3562 467.127 15.7145 466.189Q15.0728 465.25 14.4549 464.296Q13.8369 463.342 13.2431 462.373Q12.6493 461.404 12.0801 460.42Q11.5108 459.436 10.9664 458.439Q10.422 457.441 9.90285 456.43Q9.38368 455.419 8.89007 454.395Q8.39645 453.371 7.9287 452.335Q7.46095 451.299 7.01935 450.252Q6.57775 449.204 6.16259 448.146Q5.74743 447.088 5.35897 446.02Q4.9705 444.952 4.60898 443.874Q4.24746 442.796 3.91311 441.71Q2.36851 436.654 1.48657 431.442C1.09176 429.056 0.984723 426.112 0.171929 423.856C0.116877 423.703 0.0573097 423.552 0 423.4Z"/>
	<path fill="#00A9FE" transform="scale(0.0585938 0.0585938)" d="M361.651 186.36C375.921 185.639 393.06 186.909 406.757 191.144C408.846 191.79 411.561 192.487 413.179 194.032C414.293 195.096 414.508 196.829 414.556 198.295C414.757 204.445 414.508 210.686 414.524 216.85C414.536 221.574 414.924 226.665 414.462 231.349C414.367 232.31 414.179 233.716 413.419 234.398C412.566 235.164 409.87 234.402 408.92 234.068C405.432 232.844 402.128 231.015 398.618 229.756C389.665 226.544 378.247 224.847 368.809 224.513C362.257 224.282 352.009 224.022 346.997 228.896C345.074 230.766 344.123 233.515 344.118 236.176C344.112 239.699 347.374 243.025 350.039 244.991C352.789 247.019 355.935 248.481 359.014 249.935C367.54 253.96 376.47 256.876 384.991 260.873C393.692 264.954 403.085 269.813 409.964 276.597C419 285.507 423.27 296.609 423.264 309.251C423.257 322.971 418.486 335.638 408.662 345.332C393.402 360.39 371.161 363.748 350.646 363.685C336.462 363.401 322.004 361.755 308.575 356.976C306.346 356.182 303.932 355.407 301.913 354.164C300.614 353.364 299.786 352.531 299.469 351.008C298.691 347.269 299.313 341.838 299.306 337.874C299.292 329.934 298.872 321.778 299.34 313.863C299.387 313.068 299.386 311.792 299.892 311.163C300.251 310.716 301.256 310.998 301.718 311.168C303.522 311.831 305.316 312.971 307.028 313.857Q310.815 315.829 314.788 317.395Q317.292 318.374 319.842 319.226Q322.392 320.079 324.981 320.804Q327.57 321.529 330.192 322.123Q332.814 322.718 335.462 323.181Q338.111 323.645 340.779 323.975Q343.447 324.306 346.128 324.504Q348.81 324.701 351.497 324.765Q354.185 324.828 356.873 324.758C362.468 324.582 370.595 323.897 374.606 319.447C376.228 317.649 377.284 315.13 377.131 312.687C376.89 308.817 373.954 305.793 370.998 303.613C363.947 298.415 348.726 293.849 340.215 289.92C331.974 286.115 323.187 281.459 316.353 275.439C306.639 266.882 300.487 255.615 299.765 242.591Q299.69 241.365 299.676 240.136Q299.661 238.907 299.707 237.679Q299.753 236.452 299.859 235.228Q299.965 234.003 300.131 232.786Q300.297 231.569 300.523 230.361Q300.749 229.153 301.034 227.958Q301.319 226.763 301.662 225.583Q302.005 224.403 302.406 223.241Q302.807 222.08 303.264 220.94Q303.722 219.799 304.235 218.683Q304.748 217.566 305.315 216.476Q305.882 215.386 306.502 214.326Q307.122 213.265 307.794 212.236Q308.465 211.207 309.187 210.212Q309.908 209.217 310.677 208.259Q311.447 207.301 312.262 206.382C325.047 192.251 343.235 187.247 361.651 186.36Z"/>
	<path fill="#00A9FE" transform="scale(0.0585938 0.0585938)" d="M172.364 133.381Q175.289 133.327 178.214 133.316C206.343 133.247 235.349 136.757 256.269 157.731C269.765 171.262 276.525 190.691 276.488 209.637C276.448 229.998 270.718 249.314 255.963 263.986C235.606 284.229 207.209 288.197 179.772 288.263C173.679 288.278 167.607 287.758 161.515 287.749L161.515 301.125L161.521 336.399C161.521 342.464 161.76 348.638 161.483 354.691C161.434 355.75 161.34 357.434 160.865 358.37C160.657 358.779 160.439 358.828 160.013 358.968C158.034 359.619 122.997 359.491 119.01 359.239C117.802 359.163 116.63 359.044 115.526 358.519C114.857 355.486 115.198 351.872 115.197 348.752L115.204 333.18L115.202 272.451L115.2 179.511L115.202 151.093C115.202 145.797 114.875 140.266 115.465 135.005C117.73 134.171 129.691 134.38 133.051 134.297Q152.704 133.703 172.364 133.381Z"/>
	<path fill="#001935" transform="scale(0.0585938 0.0585938)" d="M162.933 175.61C167.735 175.422 172.572 175.477 177.378 175.435C182.509 175.391 187.704 175.235 192.824 175.632C203.801 176.483 215.607 180.219 222.909 188.903C228.937 196.071 230.831 206.113 229.99 215.255C229.14 224.505 225.722 231.292 218.589 237.211C203.233 249.317 180.323 248.417 161.751 247.524C161.574 232.68 161.727 217.815 161.728 202.968L161.742 184.693C161.743 182.45 161.576 180.168 161.649 177.934C161.674 177.191 161.663 176.422 162.058 175.771L162.933 175.61Z"/>
</svg>
